<svg width="74" height="18" viewBox="0 0 74 18" fill="none" xmlns="http://www.w3.org/2000/svg">
<path d="M13.96 4.66C12.84 2.3 10.36 0.739999 7.62 0.739999C3.78 0.739999 0.64 3.76 0.64 7.46C0.64 11.16 3.78 14.16 7.62 14.16C9.06 14.16 10.42 13.76 11.6 12.96C12.4 12.44 13.04 11.76 13.54 11C13.04 10.58 12.28 10.64 11.82 11.12C10.76 12.22 9.24 12.88 7.62 12.88C4.48 12.88 1.92 10.46 1.92 7.46C1.92 4.46 4.48 2.02 7.62 2.02C9.52 2.02 11.24 2.94 12.3 4.38C12.7 4.88 13.42 5 13.96 4.66ZM25.3494 9.38C25.3494 6.76 23.0694 4.62 20.2894 4.62C17.5094 4.62 15.2494 6.76 15.2494 9.38C15.2494 12 17.5094 14.12 20.2894 14.12C23.0694 14.12 25.3494 12 25.3494 9.38ZM24.0494 9.38C24.0494 11.28 22.3694 12.84 20.2894 12.84C18.2294 12.84 16.5294 11.28 16.5294 9.38C16.5294 7.46 18.2294 5.9 20.2894 5.9C22.3694 5.9 24.0494 7.46 24.0494 9.38ZM27.9023 13.24C27.9023 12.74 27.4423 12.34 26.8823 12.34C26.3223 12.34 25.8623 12.74 25.8623 13.24C25.8623 13.74 26.3223 14.14 26.8823 14.14C27.4423 14.14 27.9023 13.74 27.9023 13.24ZM40.8672 0.839999H29.2872C29.3072 1.54 29.8672 2.12 30.5672 2.12H34.4472V12.88C34.4472 13.56 35.0072 14.12 35.6872 14.12H35.7272V2.12H39.5872C40.2872 2.12 40.8672 1.56 40.8672 0.839999ZM50.8144 9.24V4.6H50.7944C50.0944 4.6 49.5344 5.16 49.5344 5.84V9.24C49.5344 10.28 49.0744 11.26 48.2544 11.94L48.2944 11.96C48.3544 12 48.4144 12.06 48.4944 12.1C49.0744 12.4 49.8144 12.22 50.1544 11.66C50.5944 10.94 50.8144 10.1 50.8144 9.24ZM50.3144 14.76C50.3144 13.42 49.2544 12.72 48.1944 12.72H46.0544C44.1344 12.72 42.5744 11.16 42.5744 9.24H42.5944V5.84C42.5944 5.16 42.0344 4.6 41.3544 4.6H41.3144V9.24H41.2944C41.2944 11.86 43.4344 14 46.0544 14H48.1944C48.3944 14 49.0344 14.06 49.0344 14.76C49.0344 15.18 48.6944 15.52 48.2744 15.52H45.9944C45.3144 15.52 44.7544 16.1 44.7544 16.8C48.2744 16.8 48.2744 16.8 48.2744 16.8C49.3944 16.8 50.3144 15.88 50.3144 14.76ZM62.6345 9.38C62.6345 6.74 60.5145 4.62 57.8745 4.62C54.9345 4.62 52.9545 6.52 52.9545 9.38V17.54C53.6545 17.54 54.2345 16.98 54.2345 16.3V9.38C54.2345 7.22 55.6345 5.9 57.8745 5.9C59.7945 5.9 61.3545 7.46 61.3545 9.38C61.3545 11.28 59.7945 12.84 57.8745 12.84C56.8145 12.84 55.8145 12.4 55.1345 11.66C55.0945 11.72 55.0545 11.78 55.0145 11.84C54.6945 12.46 54.9145 13.24 55.5545 13.58C56.2545 13.94 57.0545 14.12 57.8745 14.12C60.5145 14.12 62.6345 12 62.6345 9.38ZM73.7213 8.8C73.4813 6.44 71.3613 4.62 68.8413 4.62C66.1213 4.62 63.9213 6.74 63.9213 9.38C63.9213 12 66.1213 14.12 68.8413 14.12C70.5813 14.12 72.1813 13.22 73.0613 11.84C72.5213 11.44 71.7813 11.48 71.3013 11.94C70.6413 12.5 69.7613 12.84 68.8413 12.84C67.0613 12.84 65.5813 11.62 65.2613 10.02C66.2212 10.02 70.7613 10.02 72.4613 10.02C73.1413 10 73.8013 9.5 73.7213 8.8ZM72.3613 8.52C72.3813 8.64 72.2613 8.74 72.1413 8.74H65.2613C65.5813 7.12 67.0613 5.9 68.8413 5.9C70.5413 5.9 71.9613 7.02 72.3613 8.52Z" fill="#718096"/>
</svg>
