<svg width="100" height="23" viewBox="0 0 100 23" fill="none" xmlns="http://www.w3.org/2000/svg">
<path d="M18.846 5.391C17.334 2.205 13.986 0.0989987 10.287 0.0989987C5.103 0.0989987 0.864 4.176 0.864 9.171C0.864 14.166 5.103 18.216 10.287 18.216C12.231 18.216 14.067 17.676 15.66 16.596C16.74 15.894 17.604 14.976 18.279 13.95C17.604 13.383 16.578 13.464 15.957 14.112C14.526 15.597 12.474 16.488 10.287 16.488C6.048 16.488 2.592 13.221 2.592 9.171C2.592 5.121 6.048 1.827 10.287 1.827C12.852 1.827 15.174 3.069 16.605 5.013C17.145 5.688 18.117 5.85 18.846 5.391ZM34.2217 11.763C34.2217 8.226 31.1437 5.337 27.3907 5.337C23.6377 5.337 20.5867 8.226 20.5867 11.763C20.5867 15.3 23.6377 18.162 27.3907 18.162C31.1437 18.162 34.2217 15.3 34.2217 11.763ZM32.4667 11.763C32.4667 14.328 30.1987 16.434 27.3907 16.434C24.6097 16.434 22.3147 14.328 22.3147 11.763C22.3147 9.171 24.6097 7.065 27.3907 7.065C30.1987 7.065 32.4667 9.171 32.4667 11.763ZM37.6682 16.974C37.6682 16.299 37.0472 15.759 36.2912 15.759C35.5352 15.759 34.9142 16.299 34.9142 16.974C34.9142 17.649 35.5352 18.189 36.2912 18.189C37.0472 18.189 37.6682 17.649 37.6682 16.974ZM55.1707 0.233999H39.5377C39.5647 1.179 40.3207 1.962 41.2657 1.962H46.5037V16.488C46.5037 17.406 47.2597 18.162 48.1777 18.162H48.2317V1.962H53.4427C54.3877 1.962 55.1707 1.206 55.1707 0.233999ZM68.5994 11.574V5.31H68.5724C67.6274 5.31 66.8714 6.066 66.8714 6.984V11.574C66.8714 12.978 66.2504 14.301 65.1434 15.219L65.1974 15.246C65.2784 15.3 65.3594 15.381 65.4674 15.435C66.2504 15.84 67.2494 15.597 67.7084 14.841C68.3024 13.869 68.5994 12.735 68.5994 11.574ZM67.9244 19.026C67.9244 17.217 66.4934 16.272 65.0624 16.272H62.1734C59.5814 16.272 57.4754 14.166 57.4754 11.574H57.5024V6.984C57.5024 6.066 56.7464 5.31 55.8284 5.31H55.7744V11.574H55.7474C55.7474 15.111 58.6364 18 62.1734 18H65.0624C65.3324 18 66.1964 18.081 66.1964 19.026C66.1964 19.593 65.7374 20.052 65.1704 20.052H62.0924C61.1744 20.052 60.4184 20.835 60.4184 21.78C65.1704 21.78 65.1704 21.78 65.1704 21.78C66.6824 21.78 67.9244 20.538 67.9244 19.026ZM84.5566 11.763C84.5566 8.199 81.6946 5.337 78.1306 5.337C74.1616 5.337 71.4886 7.902 71.4886 11.763V22.779C72.4336 22.779 73.2166 22.023 73.2166 21.105V11.763C73.2166 8.847 75.1066 7.065 78.1306 7.065C80.7226 7.065 82.8286 9.171 82.8286 11.763C82.8286 14.328 80.7226 16.434 78.1306 16.434C76.6996 16.434 75.3496 15.84 74.4316 14.841C74.3776 14.922 74.3236 15.003 74.2696 15.084C73.8376 15.921 74.1346 16.974 74.9986 17.433C75.9436 17.919 77.0236 18.162 78.1306 18.162C81.6946 18.162 84.5566 15.3 84.5566 11.763ZM99.5237 10.98C99.1997 7.794 96.3377 5.337 92.9357 5.337C89.2637 5.337 86.2937 8.199 86.2937 11.763C86.2937 15.3 89.2637 18.162 92.9357 18.162C95.2847 18.162 97.4447 16.947 98.6327 15.084C97.9037 14.544 96.9047 14.598 96.2567 15.219C95.3657 15.975 94.1777 16.434 92.9357 16.434C90.5327 16.434 88.5347 14.787 88.1027 12.627C89.3987 12.627 95.5277 12.627 97.8227 12.627C98.7407 12.6 99.6317 11.925 99.5237 10.98ZM97.6877 10.602C97.7147 10.764 97.5527 10.899 97.3907 10.899H88.1027C88.5347 8.712 90.5327 7.065 92.9357 7.065C95.2307 7.065 97.1477 8.577 97.6877 10.602Z" fill="white"/>
</svg>
